<svg fill="none" height="24" viewBox="0 0 24 24" width="24" xmlns="http://www.w3.org/2000/svg"><path d="m24 12.004c0 6.0625-4.4926 11.0745-10.3288 11.8878-.5457.0757-1.1041.1153-1.6708.1153-.6541 0-1.2965-.0522-1.9221-.1531-5.71436-.9202-10.0783-5.8758-10.0783-11.85 0-6.62947 5.37295-12.004 11.9996-12.004 6.6266 0 12.0004 5.37453 12.0004 12.004z" fill="#1877f2"/><path d="m13.6712 9.63833v2.61497h3.2338l-.5121 3.5224h-2.7217v8.1156c-.5458.0757-1.1041.1153-1.6708.1153-.6542 0-1.2966-.0522-1.9221-.1531v-8.0778h-2.98249v-3.5224h2.98249v-3.19952c0-1.98496 1.6085-3.5948 3.5937-3.5948v.00169c.0059 0 .0109-.00169.0168-.00169h3.2171v3.04641h-2.1021c-.6248 0-1.1318.50718-1.1318 1.1321z" fill="#fff"/></svg>