<svg width="24" height="24" viewBox="0 0 24 24" fill="none" xmlns="http://www.w3.org/2000/svg">
<rect width="24" height="24" rx="12" fill="#3D71FF"/>
<g clip-path="url(#clip0_1640_1434)">
<path d="M17.3029 14.4338L16.1791 13.3082L17.3029 12.1842C17.6746 11.8158 17.9698 11.3775 18.1716 10.8946C18.3735 10.4117 18.478 9.89369 18.4791 9.37029C18.4803 8.84689 18.3781 8.32842 18.1783 7.84464C17.9786 7.36087 17.6853 6.92131 17.3152 6.55121C16.9452 6.18111 16.5057 5.88776 16.022 5.68799C15.5383 5.48823 15.0199 5.38598 14.4966 5.38713C13.9733 5.38827 13.4553 5.49279 12.9725 5.69467C12.4897 5.89656 12.0515 6.19183 11.6831 6.56355L10.5593 7.68832L9.43465 6.56434L10.56 5.44036C11.6034 4.39681 13.0186 3.81055 14.4942 3.81055C15.9698 3.81055 17.3849 4.39681 18.4283 5.44036C19.4717 6.48392 20.0579 7.89928 20.0579 9.37509C20.0579 10.8509 19.4717 12.2663 18.4283 13.3098L17.3037 14.4338H17.3029ZM15.0553 16.6818L13.9307 17.8057C12.8873 18.8493 11.4721 19.4355 9.99655 19.4355C8.52097 19.4355 7.10582 18.8493 6.06243 17.8057C5.01903 16.7622 4.43286 15.3468 4.43286 13.871C4.43286 12.3952 5.01903 10.9798 6.06243 9.93628L7.18703 8.8123L8.31084 9.93787L7.18703 11.0619C6.81537 11.4303 6.52014 11.8686 6.31829 12.3515C6.11644 12.8344 6.01194 13.3524 6.01079 13.8758C6.00965 14.3992 6.11187 14.9177 6.31161 15.4014C6.51135 15.8852 6.80466 16.3248 7.1747 16.6949C7.54474 17.065 7.98423 17.3583 8.46793 17.5581C8.95164 17.7579 9.47003 17.8601 9.99335 17.859C10.5167 17.8578 11.0346 17.7533 11.5174 17.5514C12.0003 17.3495 12.4384 17.0543 12.8069 16.6825L13.9307 15.5586L15.0553 16.6825V16.6818ZM14.4926 8.25031L15.6172 9.37509L9.99735 14.995L8.87274 13.871L14.4926 8.25111V8.25031Z" fill="white"/>
</g>
<defs>
<clipPath id="clip0_1640_1434">
<rect width="20" height="20" fill="white" transform="translate(2 2)"/>
</clipPath>
</defs>
</svg>
