<svg fill="none" height="24" viewBox="0 0 24 24" width="24" xmlns="http://www.w3.org/2000/svg"><path d="m12.0273 0h-.0546c-6.61234 0-11.9727 5.36193-11.9727 11.9762v.0547c0 6.6142 5.36036 11.9762 11.9727 11.9762h.0546c6.6123 0 11.9727-5.362 11.9727-11.9762v-.0547c0-6.61427-5.3604-11.9762-11.9727-11.9762z" fill="#007ebb"/><g fill="#fefffc"><path d="m5.72356 7.97971c-.31615-.29354-.47338-.65689-.47338-1.08921s.15807-.81164.47338-1.10602c.31616-.29354.72313-.44073 1.22174-.44073.49862 0 .88961.14719 1.20493.44073.31615.29354.47338.66277.47338 1.10602s-.15807.79567-.47338 1.08921c-.31616.29353-.71724.44072-1.20493.44072-.48768 0-.90558-.14719-1.22174-.44072zm2.63435 1.68385v8.99964h-2.84287v-8.99964z"/><path d="m17.8215 10.5523c.6197.6728.9292 1.5963.9292 2.7722v5.1794h-2.7v-4.8144c0-.593-.1538-1.0539-.4607-1.3819s-.7206-.4929-1.2386-.4929c-.5179 0-.9316.164-1.2386.4929-.3069.328-.4607.7889-.4607 1.3819v4.8144h-2.71591v-8.86589h2.71591v1.17579c.2749-.3919.6458-.7014 1.1116-.92935.4658-.22794.9896-.34148 1.5723-.34148 1.0376 0 1.8667.33643 2.4855 1.00933z"/></g></svg>