<svg width="32" height="32" viewBox="0 0 32 32" fill="none" xmlns="http://www.w3.org/2000/svg">
<g id="Group">
<path id="Vector" d="M17.4933 22.697L11.8947 19.6436C11.1637 20.425 10.2147 20.9685 9.17077 21.2035C8.12689 21.4384 7.03647 21.3539 6.04123 20.961C5.04599 20.5681 4.19195 19.8849 3.5901 19.0002C2.98824 18.1155 2.6664 17.0703 2.6664 16.0003C2.6664 14.9303 2.98824 13.885 3.5901 13.0004C4.19195 12.1157 5.04599 11.4325 6.04123 11.0396C7.03647 10.6466 8.12689 10.5622 9.17077 10.7971C10.2147 11.032 11.1637 11.5755 11.8947 12.357L17.4947 9.30362C17.1767 8.04505 17.3287 6.71374 17.9222 5.55922C18.5156 4.40471 19.5098 3.50626 20.7182 3.03229C21.9267 2.55832 23.2666 2.54136 24.4866 2.9846C25.7067 3.42784 26.7233 4.30084 27.3457 5.43997C27.9682 6.5791 28.1539 7.90614 27.8679 9.17235C27.5819 10.4386 26.8439 11.557 25.7923 12.318C24.7407 13.0791 23.4476 13.4304 22.1555 13.3063C20.8633 13.1821 19.6608 12.591 18.7733 11.6436L13.1733 14.697C13.3883 15.5521 13.3883 16.4471 13.1733 17.3023L18.772 20.3556C19.6595 19.4083 20.862 18.8171 22.1541 18.693C23.4463 18.5688 24.7394 18.9202 25.791 19.6812C26.8426 20.4422 27.5806 21.5607 27.8665 22.8269C28.1525 24.0931 27.9669 25.4201 27.3444 26.5593C26.7219 27.6984 25.7054 28.5714 24.4853 29.0146C23.2652 29.4579 21.9254 29.4409 20.7169 28.967C19.5084 28.493 18.5143 27.5945 17.9208 26.44C17.3274 25.2855 17.1754 23.9542 17.4933 22.6956V22.697ZM8.00001 18.6663C8.70725 18.6663 9.38553 18.3853 9.88562 17.8852C10.3857 17.3851 10.6667 16.7069 10.6667 15.9996C10.6667 15.2924 10.3857 14.6141 9.88562 14.114C9.38553 13.6139 8.70725 13.333 8.00001 13.333C7.29276 13.333 6.61448 13.6139 6.11439 14.114C5.61429 14.6141 5.33334 15.2924 5.33334 15.9996C5.33334 16.7069 5.61429 17.3851 6.11439 17.8852C6.61448 18.3853 7.29276 18.6663 8.00001 18.6663ZM22.6667 10.6663C23.3739 10.6663 24.0522 10.3853 24.5523 9.88524C25.0524 9.38514 25.3333 8.70686 25.3333 7.99962C25.3333 7.29238 25.0524 6.6141 24.5523 6.114C24.0522 5.6139 23.3739 5.33295 22.6667 5.33295C21.9594 5.33295 21.2812 5.6139 20.7811 6.114C20.281 6.6141 20 7.29238 20 7.99962C20 8.70686 20.281 9.38514 20.7811 9.88524C21.2812 10.3853 21.9594 10.6663 22.6667 10.6663ZM22.6667 26.6663C23.3739 26.6663 24.0522 26.3853 24.5523 25.8852C25.0524 25.3851 25.3333 24.7069 25.3333 23.9996C25.3333 23.2924 25.0524 22.6141 24.5523 22.114C24.0522 21.6139 23.3739 21.333 22.6667 21.333C21.9594 21.333 21.2812 21.6139 20.7811 22.114C20.281 22.6141 20 23.2924 20 23.9996C20 24.7069 20.281 25.3851 20.7811 25.8852C21.2812 26.3853 21.9594 26.6663 22.6667 26.6663Z" fill="#1F5AFF"/>
</g>
</svg>
