<svg width="32" height="33" viewBox="0 0 32 33" fill="none" xmlns="http://www.w3.org/2000/svg">
  <path
    d="M2.66602 16.4993C2.66602 23.8633 8.63535 29.8327 15.9993 29.8327C23.3633 29.8327 29.3327 23.8633 29.3327 16.4993C29.3327 9.13535 23.3633 3.16602 15.9993 3.16602C8.63535 3.16602 2.66602 9.13535 2.66602 16.4993Z"
    fill="#3DB9FF" />
  <path
    d="M11.8701 18.0513L11.8527 18.0607L8.5234 17.022C7.8034 16.802 7.79807 16.306 8.6834 15.9513L21.6607 10.938C22.4141 10.6287 22.8407 11.018 22.5967 11.9887L20.3874 22.418C20.2327 23.1593 19.7861 23.3367 19.1647 22.994L15.7647 20.4767L14.1807 22.0073C14.0167 22.1647 13.8847 22.2993 13.6341 22.3327C13.3847 22.3673 13.1794 22.2927 13.0301 21.878L11.8701 18.0513Z"
    fill="white" />
</svg>