<svg fill="none" height="24" viewBox="0 0 24 24" width="24" xmlns="http://www.w3.org/2000/svg"><path d="m23.9983 12.0035c0 6.0624-4.4924 11.0742-10.3285 11.8875-.5456.0757-1.1039.1152-1.6706.1152-.6542 0-1.2966-.0521-1.9221-.153-5.71331-.9201-10.0771-5.8756-10.0771-11.8497 0-6.62916 5.37276-12.0035 12-12.0035 6.6272 0 12 5.37434 12 12.0035z" fill="#1c1c1b"/><path d="m4.86661 5.29492 5.53419 7.40128-5.56866 6.0178h1.25364l4.87582-5.2684 3.9392 5.2684h4.2654l-5.8453-7.8177 5.1836-5.60138h-1.2536l-4.49 4.85208-3.62803-4.85208h-4.26542zm1.84305.92348h1.95908l8.65276 11.5721h-1.9591z" fill="#fff"/></svg>