<svg width="32" height="33" viewBox="0 0 32 33" fill="none" xmlns="http://www.w3.org/2000/svg">
  <path
    d="M25.9331 6.89484C24.0711 6.04325 22.0937 5.42258 20.0296 5.07617C19.7698 5.52363 19.4811 6.12984 19.279 6.60617C17.0836 6.28862 14.9041 6.28862 12.739 6.60617C12.5369 6.12984 12.2338 5.52363 11.9884 5.07617C9.90994 5.42258 7.93249 6.04325 6.0835 6.89484C2.34512 12.4086 1.33474 17.7924 1.83993 23.1041C4.32256 24.9083 6.71862 26.0054 9.07279 26.7271C9.65015 25.9476 10.1698 25.1104 10.6172 24.23C9.76563 23.9124 8.95733 23.5227 8.17789 23.0608C8.37997 22.9165 8.58205 22.7578 8.7697 22.599C13.4752 24.7496 18.5718 24.7496 23.2195 22.599C23.4215 22.7578 23.6092 22.9165 23.8113 23.0608C23.0318 23.5227 22.2236 23.9124 21.3719 24.23C21.8194 25.1104 22.339 25.9476 22.9163 26.7271C25.2691 26.0054 27.6796 24.9083 30.1492 23.1041C30.7698 16.9553 29.1662 11.6148 25.9331 6.89484ZM11.2667 19.8276C9.85221 19.8276 8.69749 18.543 8.69749 16.9698C8.69749 15.3965 9.82334 14.1118 11.2667 14.1118C12.6957 14.1118 13.8648 15.3965 13.8359 16.9698C13.8359 18.543 12.6957 19.8276 11.2667 19.8276ZM20.7513 19.8276C19.3367 19.8276 18.1806 18.543 18.1806 16.9698C18.1806 15.3965 19.3079 14.1118 20.7513 14.1118C22.1803 14.1118 23.3494 15.3965 23.3205 16.9698C23.3205 18.543 22.1947 19.8276 20.7513 19.8276Z"
    fill="#5865F2" />
</svg>