<svg fill="none" height="33" viewBox="0 0 32 33" width="32" xmlns="http://www.w3.org/2000/svg"><path d="m25.9334 6.89484c-1.862-.85159-3.8394-1.47226-5.9035-1.81867-.2598.44746-.5485 1.05367-.7506 1.53-2.1954-.31755-4.3749-.31755-6.54 0-.2021-.47633-.5052-1.08254-.7506-1.53-2.07846.34641-4.05591.96708-5.90489 1.81867-3.73838 5.51376-4.74876 10.89756-4.24357 16.20926 2.48263 1.8042 4.87868 2.9013 7.23286 3.623.57736-.7795 1.097-1.6167 1.5444-2.4971-.85157-.3176-1.65987-.7073-2.4393-1.1692.20207-.1443.40416-.303.5918-.4618 4.7055 2.1506 9.8021 2.1506 14.4498 0 .2021.1588.3897.3175.5918.4618-.7795.4619-1.5877.8516-2.4394 1.1692.4475.8804.9671 1.7176 1.5444 2.4971 2.3528-.7217 4.7633-1.8188 7.2329-3.623.6206-6.1488-.9829-11.4893-4.2161-16.20926zm-14.6663 12.93276c-1.41459 0-2.5693-1.2846-2.5693-2.8578 0-1.5733 1.12584-2.858 2.5693-2.858 1.4289 0 2.598 1.2847 2.5691 2.858 0 1.5732-1.1402 2.8578-2.5691 2.8578zm9.4845 0c-1.4146 0-2.5707-1.2846-2.5707-2.8578 0-1.5733 1.1273-2.858 2.5707-2.858 1.429 0 2.5981 1.2847 2.5692 2.858 0 1.5732-1.1258 2.8578-2.5692 2.8578z" fill="#3d71ff"/></svg>