<svg width="32" height="33" viewBox="0 0 32 33" fill="none" xmlns="http://www.w3.org/2000/svg">
  <g clip-path="url(#clip0_1276_4914)">
    <path
      d="M15.9993 29.8327C23.3631 29.8327 29.3327 23.8631 29.3327 16.4993C29.3327 9.13555 23.3631 3.16602 15.9993 3.16602C8.63555 3.16602 2.66602 9.13555 2.66602 16.4993C2.66602 23.8631 8.63555 29.8327 15.9993 29.8327Z"
      fill="#FF4500" />
    <path
      d="M24.8934 16.4998C24.8797 16.1245 24.7577 15.7612 24.5422 15.4537C24.3266 15.1461 24.0267 14.9075 23.6786 14.7666C23.3305 14.6256 22.949 14.5884 22.5803 14.6594C22.2115 14.7303 21.8711 14.9064 21.6001 15.1665C20.0833 14.1355 18.3004 13.5658 16.4668 13.5265L17.3334 9.3665L20.1868 9.9665C20.2207 10.2818 20.3659 10.5747 20.5963 10.7926C20.8267 11.0105 21.1272 11.1392 21.444 11.1555C21.7607 11.1718 22.0728 11.0746 22.3244 10.8815C22.5759 10.6884 22.7504 10.412 22.8165 10.1018C22.8826 9.79164 22.836 9.46807 22.685 9.18918C22.5341 8.91028 22.2886 8.69433 21.9928 8.58008C21.697 8.46584 21.3701 8.46077 21.0709 8.56581C20.7716 8.67084 20.5196 8.87909 20.3601 9.15317L17.0934 8.49984C17.04 8.48811 16.9848 8.48711 16.931 8.49689C16.8772 8.50667 16.8258 8.52703 16.7799 8.5568C16.7341 8.58656 16.6945 8.62514 16.6637 8.67029C16.6328 8.71544 16.6112 8.76627 16.6001 8.81984L15.6134 13.4465C13.7573 13.4745 11.9498 14.0445 10.4134 15.0865C10.2079 14.8931 9.96276 14.7467 9.69502 14.6575C9.42727 14.5682 9.14332 14.5383 8.86285 14.5697C8.58238 14.6011 8.31209 14.6931 8.07071 14.8394C7.82934 14.9856 7.62265 15.1826 7.46497 15.4167C7.30729 15.6507 7.20239 15.9163 7.15755 16.1949C7.1127 16.4736 7.12898 16.7586 7.20525 17.0304C7.28152 17.3021 7.41596 17.554 7.59926 17.7686C7.78256 17.9832 8.01032 18.1553 8.26678 18.2732C8.25177 18.4684 8.25177 18.6646 8.26678 18.8598C8.26678 21.8465 11.7468 24.2732 16.0401 24.2732C20.3334 24.2732 23.8134 21.8465 23.8134 18.8598C23.8285 18.6646 23.8285 18.4684 23.8134 18.2732C24.1425 18.1096 24.4185 17.8563 24.6096 17.5425C24.8007 17.2287 24.8991 16.8672 24.8934 16.4998ZM11.5601 17.8332C11.5601 17.5695 11.6383 17.3117 11.7848 17.0924C11.9313 16.8731 12.1396 16.7022 12.3832 16.6013C12.6268 16.5004 12.8949 16.474 13.1536 16.5255C13.4122 16.5769 13.6498 16.7039 13.8363 16.8904C14.0227 17.0768 14.1497 17.3144 14.2012 17.573C14.2526 17.8317 14.2262 18.0998 14.1253 18.3434C14.0244 18.587 13.8535 18.7953 13.6342 18.9418C13.4149 19.0883 13.1572 19.1665 12.8934 19.1665C12.5398 19.1665 12.2007 19.026 11.9506 18.776C11.7006 18.5259 11.5601 18.1868 11.5601 17.8332ZM19.3068 21.4998C18.3608 22.2127 17.1969 22.5755 16.0134 22.5265C14.83 22.5755 13.6661 22.2127 12.7201 21.4998C12.6634 21.4308 12.6344 21.3431 12.6388 21.2538C12.6432 21.1645 12.6806 21.0801 12.7438 21.0169C12.807 20.9537 12.8915 20.9163 12.9807 20.9119C13.07 20.9075 13.1577 20.9365 13.2268 20.9932C14.0284 21.5812 15.0069 21.8775 16.0001 21.8332C16.9945 21.8872 17.9776 21.6003 18.7868 21.0198C18.8218 20.9857 18.8632 20.9588 18.9086 20.9406C18.954 20.9225 19.0026 20.9135 19.0515 20.9141C19.1004 20.9147 19.1487 20.925 19.1936 20.9442C19.2386 20.9635 19.2793 20.9915 19.3134 21.0265C19.3476 21.0615 19.3745 21.1029 19.3926 21.1483C19.4108 21.1938 19.4198 21.2423 19.4192 21.2912C19.4186 21.3401 19.4083 21.3884 19.389 21.4334C19.3697 21.4783 19.3418 21.519 19.3068 21.5532V21.4998ZM19.0668 19.2198C18.8031 19.2198 18.5453 19.1416 18.326 18.9951C18.1068 18.8486 17.9359 18.6404 17.8349 18.3967C17.734 18.1531 17.7076 17.885 17.7591 17.6264C17.8105 17.3677 17.9375 17.1302 18.124 16.9437C18.3104 16.7572 18.548 16.6302 18.8067 16.5788C19.0653 16.5273 19.3334 16.5537 19.577 16.6547C19.8207 16.7556 20.0289 16.9265 20.1754 17.1457C20.3219 17.365 20.4001 17.6228 20.4001 17.8865C20.4074 18.0672 20.3778 18.2474 20.3132 18.4163C20.2486 18.5852 20.1503 18.7391 20.0244 18.8688C19.8984 18.9985 19.7474 19.1013 19.5805 19.1708C19.4135 19.2403 19.2342 19.2751 19.0534 19.2732L19.0668 19.2198Z"
      fill="white" />
  </g>
  <defs>
    <clipPath id="clip0_1276_4914">
      <rect width="26.6667" height="26.6667" fill="white" transform="translate(2.66602 3.16602)" />
    </clipPath>
  </defs>
</svg>