<svg fill="none" height="33" viewBox="0 0 32 33" width="32" xmlns="http://www.w3.org/2000/svg" xmlns:xlink="http://www.w3.org/1999/xlink"><clipPath id="a"><path d="m2.66669 3.16602h26.6667v26.6667h-26.6667z"/></clipPath><g clip-path="url(#a)"><path d="m16 29.8327c7.3638 0 13.3334-5.9696 13.3334-13.3334 0-7.36375-5.9696-13.33328-13.3334-13.33328-7.36378 0-13.33331 5.96953-13.33331 13.33328 0 7.3638 5.96953 13.3334 13.33331 13.3334z" fill="#3d71ff"/><path d="m24.8934 16.4998c-.0137-.3753-.1357-.7386-.3512-1.0461-.2156-.3076-.5155-.5462-.8636-.6871-.3481-.141-.7296-.1782-1.0983-.1072-.3688.0709-.7092.247-.9802.5071-1.5168-1.031-3.2997-1.6007-5.1333-1.64l.8666-4.16 2.8534.6c.0339.3153.1791.6082.4095.8261s.5309.3466.8477.3629c.3167.0163.6288-.0809.8804-.274.2515-.1931.426-.4695.4921-.7797.0661-.31016.0195-.63373-.1315-.91262-.1509-.2789-.3964-.49485-.6922-.6091-.2958-.11424-.6227-.11931-.9219-.01427-.2993.10503-.5513.31328-.7108.58736l-3.2667-.65333c-.0534-.01173-.1086-.01273-.1624-.00295s-.1052.03014-.1511.05991c-.0458.02976-.0854.06834-.1162.11349-.0309.04515-.0525.09598-.0636.14955l-.9867 4.62666c-1.8561.028-3.6636.598-5.2 1.64-.2055-.1934-.45064-.3398-.71838-.429-.26775-.0893-.5517-.1192-.83217-.0878s-.55076.1234-.79214.2697c-.24137.1462-.44806.3432-.60574.5773-.15768.234-.26258.4996-.30742.7782-.04485.2787-.02857.5637.0477.8355.07627.2717.21071.5236.39401.7382s.41106.3867.66752.5046c-.01501.1952-.01501.3914 0 .5866 0 2.9867 3.48002 5.4134 7.77332 5.4134s7.7733-2.4267 7.7733-5.4134c.0151-.1952.0151-.3914 0-.5866.3291-.1636.6051-.4169.7962-.7307s.2895-.6753.2838-1.0427zm-13.3333 1.3334c0-.2637.0782-.5215.2247-.7408s.3548-.3902.5984-.4911.5117-.1273.7704-.0758c.2586.0514.4962.1784.6827.3649.1864.1864.3134.424.3649.6826.0514.2587.025.5268-.0759.7704s-.2718.4519-.4911.5984-.477.2247-.7408.2247c-.3536 0-.6927-.1405-.9428-.3905-.25-.2501-.3905-.5892-.3905-.9428zm7.7467 3.6666c-.946.7129-2.1099 1.0757-3.2934 1.0267-1.1834.049-2.3473-.3138-3.2933-1.0267-.0567-.069-.0857-.1567-.0813-.246s.0418-.1737.105-.2369.1477-.1006.2369-.105c.0893-.0044.177.0246.2461.0813.8016.588 1.7801.8843 2.7733.84.9944.054 1.9775-.2329 2.7867-.8134.035-.0341.0764-.061.1218-.0792.0454-.0181.094-.0271.1429-.0265s.0972.0109.1421.0301c.045.0193.0857.0473.1198.0823.0342.035.0611.0764.0792.1218.0182.0455.0272.094.0266.1429s-.0109.0972-.0302.1422c-.0193.0449-.0472.0856-.0822.1198zm-.24-2.28c-.2637 0-.5215-.0782-.7408-.2247-.2192-.1465-.3901-.3547-.4911-.5984-.1009-.2436-.1273-.5117-.0758-.7703.0514-.2587.1784-.4962.3649-.6827.1864-.1865.424-.3135.6827-.3649.2586-.0515.5267-.0251.7703.0759.2437.1009.4519.2718.5984.491.1465.2193.2247.4771.2247.7408.0073.1807-.0223.3609-.0869.5298s-.1629.3228-.2888.4525c-.126.1297-.277.2325-.4439.302-.167.0695-.3463.1043-.5271.1024z" fill="#fff"/></g></svg>