<svg fill="none" height="33" viewBox="0 0 32 33" width="32" xmlns="http://www.w3.org/2000/svg"><path d="m2.66669 16.4993c0 7.364 5.96933 13.3334 13.33331 13.3334 7.364 0 13.3334-5.9694 13.3334-13.3334 0-7.36395-5.9694-13.33328-13.3334-13.33328-7.36398 0-13.33331 5.96933-13.33331 13.33328z" fill="#3d71ff"/><path d="m11.8706 18.0513-.0173.0094-3.32935-1.0387c-.72-.22-.72533-.716.16-1.0707l12.97735-5.0133c.7533-.3093 1.18.08.936 1.0507l-2.2094 10.4293c-.1546.7413-.6013.9187-1.2226.576l-3.4-2.5173-1.584 1.5306c-.164.1574-.296.292-.5467.3254-.2493.0346-.4547-.04-.604-.4547z" fill="#fff"/></svg>